<?xml version="1.0" standalone="no"?><!DOCTYPE svg PUBLIC "-//W3C//DTD SVG 1.1//EN" "http://www.w3.org/Graphics/SVG/1.1/DTD/svg11.dtd"><svg t="1763437416812" class="icon" viewBox="0 0 1024 1024" version="1.1" xmlns="http://www.w3.org/2000/svg" p-id="6012" xmlns:xlink="http://www.w3.org/1999/xlink" width="200" height="200"><path d="M559.5648 873.4208h118.6304a186.7776 186.7776 0 0 0 186.7776-186.7776v-150.7328a79.872 79.872 0 0 0-79.872-79.9232h-118.6816a186.8288 186.8288 0 0 0-186.7776 186.7776V793.6a79.9232 79.9232 0 0 0 79.9232 79.8208z" fill="#B0FFB4" p-id="6013"></path><path d="M695.7056 909.2608H335.1552a201.984 201.984 0 0 1-201.728-201.7792V312.6272a201.984 201.984 0 0 1 201.728-201.7792h65.536a35.84 35.84 0 0 1 0 71.68h-65.536a130.2016 130.2016 0 0 0-130.048 130.0992v394.8544a130.2016 130.2016 0 0 0 130.048 130.0992h360.5504a130.2528 130.2528 0 0 0 130.048-130.0992V624.64a35.84 35.84 0 1 1 71.68 0v82.944a201.984 201.984 0 0 1-201.728 201.6768z" fill="#34332E" p-id="6014"></path><path d="M479.6416 559.8208a35.84 35.84 0 0 1-26.0608-60.416l332.8-353.024a35.84 35.84 0 1 1 52.1728 49.2032l-332.8 353.28a35.84 35.84 0 0 1-26.112 10.9568zM695.296 728.4736H328.6016a35.84 35.84 0 0 1 0-71.68h366.6944a35.84 35.84 0 0 1 0 71.68z" fill="#34332E" p-id="6015"></path></svg>