<?xml version="1.0" encoding="UTF-8"?>
<svg version="1.1" xmlns="http://www.w3.org/2000/svg" width="360" height="360">
<path d="M0 0 C0.99257813 0.83015625 1.98515625 1.6603125 3.0078125 2.515625 C26.46640613 22.74074693 41.54944444 53.17140599 44 84 C45.70559355 117.52121801 37.06360881 149.67567944 14.5625 175.1875 C13.05108555 176.80054404 11.53018743 178.40475358 10 180 C8.86304688 181.23169922 8.86304688 181.23169922 7.703125 182.48828125 C-13.53879666 204.8061826 -44.02111349 217.06566627 -74.609375 218.125 C-97.74805774 218.6148743 -119.90382177 213.63266718 -140 202 C-140.60924316 201.65066406 -141.21848633 201.30132812 -141.84619141 200.94140625 C-150.93322247 195.64488214 -158.49620363 189.33276967 -166 182 C-166.80179688 181.26007813 -167.60359375 180.52015625 -168.4296875 179.7578125 C-189.27973876 160.06208934 -201.34040152 129.42123753 -202.203125 101.07421875 C-202.66296355 69.67714072 -194.563351 40.35860035 -174 16 C-172.75476563 14.51113281 -172.75476563 14.51113281 -171.484375 12.9921875 C-128.8044353 -36.51116605 -49.68562095 -41.94423525 0 0 Z M-105 -3 C-106.59412284 0.18824568 -106.10174735 3.62896662 -106.0625 7.125 C-106.05798828 7.87910156 -106.05347656 8.63320312 -106.04882812 9.41015625 C-106.03703499 11.27347127 -106.01909942 13.13674555 -106 15 C-106.69222656 15.14695312 -107.38445312 15.29390625 -108.09765625 15.4453125 C-131.18896386 20.73897195 -155.24112659 32.99964427 -172 50 C-173.44430855 52.88861709 -173.37688506 54.79647701 -173 58 C-170.76435867 60.874396 -168.95166911 62.57425329 -165.625 64.0625 C-159.88110894 63.92574069 -155.7611095 59.8348234 -151.5625 56.3125 C-138.39137386 45.56341985 -121.92401437 38.52032498 -106 33 C-106 40.59 -106 48.18 -106 56 C-109.3 56.99 -112.6 57.98 -116 59 C-118.68976656 60.2657725 -121.19346585 61.51925964 -123.75 63 C-124.43118896 63.39171387 -125.11237793 63.78342773 -125.81420898 64.18701172 C-146.50092382 76.40650557 -169.73016812 97.37078334 -179 120 C-178.55137693 123.97351862 -177.92010025 125.98131758 -175.25 128.9375 C-172.21793587 130.36930806 -170.32151063 130.47450152 -167 130 C-162.83628067 127.18137831 -160.1994501 123.74416951 -157.4375 119.625 C-141.55152179 96.75401903 -121.95455073 78.75572111 -94.62890625 71.1875 C-91.26135624 69.66634814 -90.02902396 68.07926893 -88 65 C-87.3991021 61.87471935 -87.3991021 61.87471935 -87.48242188 58.453125 C-87.46981323 57.14827148 -87.45720459 55.84341797 -87.44421387 54.49902344 C-87.4513739 53.08267678 -87.45957794 51.66633506 -87.46875 50.25 C-87.46605344 48.78938539 -87.46216965 47.32877254 -87.45715332 45.86816406 C-87.45126587 42.81167456 -87.45979619 39.75565364 -87.47851562 36.69921875 C-87.5013056 32.78829651 -87.48817835 28.87847232 -87.46422577 24.96759033 C-87.44974689 21.95287862 -87.45438316 18.93842572 -87.46473694 15.92370605 C-87.46739849 14.48205433 -87.46415456 13.04037884 -87.45481873 11.59875488 C-87.44462077 9.58146638 -87.46292972 7.5640951 -87.48242188 5.546875 C-87.48560425 4.40057617 -87.48878662 3.25427734 -87.49206543 2.07324219 C-88.10806716 -1.65385699 -89.39274611 -3.31715811 -92 -6 C-97.2981842 -8.6490921 -101.0084938 -6.87746317 -105 -3 Z M-69 -3 C-70.39266654 -0.21466693 -70.15039342 2.08988827 -70.17700195 5.20629883 C-70.18983719 6.51137894 -70.20267242 7.81645905 -70.21589661 9.16108704 C-70.22406413 10.59306459 -70.23150784 12.02504643 -70.23828125 13.45703125 C-70.24235678 14.17710546 -70.2464323 14.89717968 -70.25063133 15.63907433 C-70.27149309 19.4508676 -70.28579391 23.26262487 -70.29516602 27.07446289 C-70.30622661 31.00888839 -70.34062133 34.94274771 -70.38033772 38.87697315 C-70.40650271 41.90448548 -70.41485773 44.93186293 -70.41844749 47.95947838 C-70.42331438 49.4095409 -70.43493146 50.85959735 -70.45348549 52.30954933 C-70.47786797 54.34139989 -70.474493 56.37352576 -70.4699707 58.40551758 C-70.47583694 59.56086502 -70.48170319 60.71621246 -70.48774719 61.90657043 C-69.89061915 65.69372407 -68.69729956 67.31708103 -66 70 C-63.381286 71.09593758 -60.95331056 71.95639548 -58.25 72.75 C-32.66016874 81.10844612 -14.46922366 99.18201186 0.58618164 120.94580078 C1.10301514 121.68685059 1.61984863 122.42790039 2.15234375 123.19140625 C2.60601318 123.85342041 3.05968262 124.51543457 3.52709961 125.19750977 C6.01172986 128.23812391 8.0433428 129.83716473 11.9375 130.5 C16.08195316 129.82335459 17.45293388 128.2747993 20 125 C20.82574695 122.32922472 21.22038907 120.68387395 20.35546875 118 C13.4257333 106.13369715 4.4353945 95.91065882 -5 86 C-5.71542969 85.22011719 -6.43085938 84.44023437 -7.16796875 83.63671875 C-19.20455049 70.92265586 -34.99618589 60.25095353 -52 56 C-52 48.41 -52 40.82 -52 33 C-32.953994 40.00893021 -16.02859884 48.15248511 -0.36328125 61.1953125 C2.57383686 63.4382027 4.30315461 64 8 64 C12.2420814 61.75278859 12.2420814 61.75278859 15 58 C15.54729144 53.98652942 15.32529359 52.44523424 12.90234375 49.12890625 C10.00494896 45.82300951 6.7479693 43.24402293 3.1875 40.6875 C2.53515381 40.21602539 1.88280762 39.74455078 1.21069336 39.25878906 C-12.48679897 29.55306266 -34.57166056 15 -52 15 C-51.95359375 13.90300781 -51.9071875 12.80601563 -51.859375 11.67578125 C-51.8218421 10.2213815 -51.78544357 8.76695217 -51.75 7.3125 C-51.71648437 6.59126953 -51.68296875 5.87003906 -51.6484375 5.12695312 C-51.57708596 1.22045657 -51.72465281 -0.56934334 -53.890625 -3.95703125 C-56.397928 -6.38540064 -57.3474234 -6.92749149 -60.8125 -7.3125 C-64.7307645 -6.92835642 -66.21293267 -5.70743683 -69 -3 Z M-87 80 C-88.26237731 82.52475462 -88.09856404 84.31200466 -88.0625 87.125 C-88.05347656 88.03507812 -88.04445313 88.94515625 -88.03515625 89.8828125 C-88.02355469 90.58148438 -88.01195312 91.28015625 -88 92 C-89.60875 92.0928125 -89.60875 92.0928125 -91.25 92.1875 C-101.97829545 93.58766554 -110.76971541 99.32122708 -119 106 C-119.84433594 106.67933594 -120.68867188 107.35867187 -121.55859375 108.05859375 C-134.70125068 119.23292764 -143.61217492 134.22890279 -151.5 149.375 C-152.0261792 150.35593628 -152.0261792 150.35593628 -152.56298828 151.35668945 C-154.7558923 155.69771049 -155.55694009 159.03596873 -155 164 C-152.88468773 166.70289901 -151.1101533 168.42701765 -148.0625 170 C-144.65736524 170 -142.8587437 168.84832567 -140 167 C-138.03781541 164.23474616 -136.63783801 161.24528355 -135.1875 158.1875 C-134.31970647 156.45861974 -133.44725861 154.73206831 -132.5703125 153.0078125 C-132.13879883 152.15606445 -131.70728516 151.30431641 -131.26269531 150.42675781 C-122.70515138 133.98012465 -110.00018836 117.40159663 -92 111 C-90.66867624 110.65872894 -89.33556655 110.32426978 -88 110 C-88.1140575 112.91747073 -88.24080268 115.83344495 -88.375 118.75 C-88.4059375 119.575 -88.436875 120.4 -88.46875 121.25 C-88.50742188 122.04921875 -88.54609375 122.8484375 -88.5859375 123.671875 C-88.63306885 124.77160645 -88.63306885 124.77160645 -88.68115234 125.89355469 C-89.18049397 129.19242111 -90.16802935 131.37558228 -92.84765625 133.38671875 C-93.57855469 133.81597656 -94.30945313 134.24523437 -95.0625 134.6875 C-110.26399718 144.5051336 -118.72259907 160.56015708 -122.6640625 177.92578125 C-123.28699607 182.04813575 -123.3586469 184.26776257 -121.5 188.0625 C-118.16961735 190.64354655 -116.21433785 191.14532199 -112 191 C-106.76776063 187.53846759 -104.98518322 184.47447133 -103.5 178.375 C-100.40938928 167.28501258 -95.58351771 157.66914025 -86.75 150.0625 C-82.43084569 148.39373584 -78.55452861 148.16558254 -74 149 C-63.93444082 153.68660956 -58.73512982 165.14791845 -55 175 C-54.49653101 176.95222671 -54.01661111 178.91070541 -53.5625 180.875 C-52.66895735 184.35931715 -51.87658576 186.74122943 -49.25 189.25 C-46.08256807 191.26540433 -46.08256807 191.26540433 -42.375 191.125 C-38.96856083 190.1965111 -38.96856083 190.1965111 -36.5 188.0625 C-33.25283415 181.43286972 -35.93860884 174.72155433 -38.1875 168.0625 C-43.48483411 154.13247327 -51.42610978 141.00789217 -64.75 133.4375 C-67.33993853 131.78281705 -67.86175251 130.80386833 -69 128 C-69.31884766 125.89355469 -69.31884766 125.89355469 -69.4140625 123.671875 C-69.45273438 122.87265625 -69.49140625 122.0734375 -69.53125 121.25 C-69.5621875 120.425 -69.593125 119.6 -69.625 118.75 C-69.66367188 117.90953125 -69.70234375 117.0690625 -69.7421875 116.203125 C-69.83615836 114.13576618 -69.91915564 112.06791373 -70 110 C-51.57810274 115.41610906 -37.98621124 129.54226262 -28.85693359 146.06933594 C-27.08509774 149.48345746 -25.40859424 152.94161204 -23.73828125 156.40625 C-20.24201128 164.16947321 -20.24201128 164.16947321 -14.0625 169.6875 C-10.11012018 170.09080406 -8.28581394 169.1656501 -5 167 C-2.45349639 163.18024458 -2.54367161 161.55415738 -3 157 C-4.13662973 153.72443976 -5.65333962 150.69851147 -7.25 147.625 C-7.69601563 146.75302979 -8.14203125 145.88105957 -8.6015625 144.98266602 C-20.64023489 122.08383077 -37.32695695 102.2736424 -62.0390625 92.83984375 C-64.86870618 92.03724033 -67.081087 91.82829924 -70 92 C-69.94199219 91.33613281 -69.88398438 90.67226562 -69.82421875 89.98828125 C-69.50549108 84.09956852 -69.50549108 84.09956852 -72.125 78.9375 C-78.13708596 74.88587685 -81.4363293 75.47143083 -87 80 Z " fill="#9A0000" transform="translate(259,85)"/>
<path d="M0 0 C0.88417603 0.00054382 1.76835205 0.00108765 2.67932129 0.00164795 C16.66796598 0.04116747 30.02481956 0.8578504 43.625 4.375 C44.47852051 4.58930664 45.33204102 4.80361328 46.21142578 5.02441406 C69.77433975 11.09291337 92.75007597 21.93422768 111.625 37.375 C112.14368652 37.79362305 112.66237305 38.21224609 113.19677734 38.64355469 C149.74539307 68.22896279 173.87055287 109.58925698 180.23022461 156.42358398 C180.98934578 164.02183767 181.01745579 171.6195124 181 179.25 C180.99978851 180.10539368 180.99957703 180.96078735 180.99935913 181.84210205 C180.9645241 196.00163337 179.96320264 209.56622635 176.625 223.375 C176.44839844 224.13248535 176.27179688 224.8899707 176.08984375 225.67041016 C164.74885651 272.83001542 132.45054812 311.74964371 91.74609375 336.79296875 C64.29096928 353.1548328 33.06222924 360.59954326 1.3125 360.625 C0.55589081 360.62567474 -0.20071838 360.62634949 -0.98025513 360.62704468 C-13.00421842 360.6100408 -24.60405098 360.02263134 -36.375 357.375 C-37.1685791 357.19807617 -37.9621582 357.02115234 -38.77978516 356.83886719 C-86.05504319 345.96602731 -127.01368324 317.34001768 -153.01171875 276.26953125 C-166.10734998 254.97794402 -174.3272858 231.99709936 -178.375 207.375 C-178.63978149 205.77676392 -178.63978149 205.77676392 -178.90991211 204.14624023 C-179.42858305 199.94051322 -179.5550419 195.84167811 -179.578125 191.609375 C-179.58382507 190.77649963 -179.58952515 189.94362427 -179.59539795 189.08551025 C-179.60480709 187.32394664 -179.61136559 185.56236575 -179.61523438 183.80078125 C-179.62482065 181.17414188 -179.65583215 178.54832724 -179.6875 175.921875 C-179.78922374 159.9550049 -177.83816091 144.62423841 -173.1875 129.3125 C-172.88561768 128.30429199 -172.58373535 127.29608398 -172.27270508 126.25732422 C-165.94604863 105.78691723 -155.96347247 85.98565782 -142.375 69.375 C-141.95637695 68.85631348 -141.53775391 68.33762695 -141.10644531 67.80322266 C-113.25552443 33.39732225 -75.90066551 10.87716782 -32.375 2.375 C-31.43672363 2.18808594 -30.49844727 2.00117187 -29.53173828 1.80859375 C-19.70383747 0.06279694 -9.94990434 -0.02300959 0 0 Z M-83.375 28.375 C-84.44363281 28.95121094 -85.51226562 29.52742188 -86.61328125 30.12109375 C-125.81385201 52.13645969 -154.29990389 90.14503129 -166.75 133.0625 C-178.9666114 177.5468557 -173.50016784 223.92110662 -151.375 264.375 C-151.03774902 264.99826172 -150.70049805 265.62152344 -150.35302734 266.26367188 C-137.69185308 289.3626533 -118.43765178 310.02981022 -96.375 324.375 C-95.78187012 324.76445801 -95.18874023 325.15391602 -94.57763672 325.55517578 C-57.74185215 349.44298726 -11.45469615 359.69653857 31.96875 351.4140625 C65.14309487 344.29516512 95.76184597 329.76770013 120.10742188 305.85742188 C121.61038818 304.38927332 123.13783624 302.95120171 124.671875 301.515625 C156.22117626 271.57561821 172.90150145 228.16402714 174.55029297 185.18481445 C175.30355394 153.7946116 167.53004335 123.8832952 152.625 96.375 C152.04878906 95.30636719 151.47257812 94.23773438 150.87890625 93.13671875 C128.86354031 53.93614799 90.85496871 25.45009611 47.9375 13 C3.33254228 0.75026801 -42.77650989 6.37718986 -83.375 28.375 Z " fill="#9A0000" transform="translate(179.375,-0.375)"/>
<path d="M0 0 C0.51401367 0.43570313 1.02802734 0.87140625 1.55761719 1.3203125 C28.24247898 24.17872887 44.36514952 56.34256409 47.6875 91.25 C47.81075152 93.16553409 47.91547622 95.08236668 48 97 C48.04125 97.91523438 48.0825 98.83046875 48.125 99.7734375 C48.92969728 136.48775087 34.44326091 170.20632668 9.90234375 197.03125 C-12.29116339 219.99947915 -44.82734713 235.68570107 -76.98046875 236.23828125 C-92.37802154 236.44606407 -107.06909202 236.25050644 -122 232 C-122.66692871 231.81808105 -123.33385742 231.63616211 -124.02099609 231.44873047 C-142.59620141 226.26915042 -159.31602908 216.33453557 -174 204 C-174.7115625 203.4121875 -175.423125 202.824375 -176.15625 202.21875 C-201.62492618 180.6683317 -216.50751137 147.62998271 -219.6875 114.8125 C-219.81093382 112.876132 -219.91560438 110.93846184 -220 109 C-220.04125 108.08347656 -220.0825 107.16695312 -220.125 106.22265625 C-220.83529833 73.85968869 -210.0732771 41.6538414 -189 17 C-188.34644531 16.22897949 -188.34644531 16.22897949 -187.6796875 15.44238281 C-164.87780331 -11.17648345 -133.09612851 -26.97101557 -98.375 -30.6875 C-62.83072287 -33.22637694 -27.30565189 -23.3399558 0 0 Z M-144 -12 C-144.99515625 -11.51660156 -145.9903125 -11.03320312 -147.015625 -10.53515625 C-158.254792 -4.73895727 -167.83154185 3.37843234 -177 12 C-177.59039062 12.5259375 -178.18078125 13.051875 -178.7890625 13.59375 C-201.8396744 35.00569281 -213.63970979 68.17649273 -214.92553711 98.95581055 C-215.76289834 131.09715374 -204.92068411 161.56591855 -184 186 C-183.32453125 186.80953125 -182.6490625 187.6190625 -181.953125 188.453125 C-161.2013634 212.53728627 -131.44822959 227.34968105 -100 231 C-95.41217216 231.27923902 -90.8455315 231.33484249 -86.25 231.3125 C-85.0242627 231.30686035 -83.79852539 231.3012207 -82.53564453 231.29541016 C-48.50928857 230.84184516 -16.98030292 216.15229129 6.94921875 192.0859375 C21.83711834 176.6052932 31.67556492 158.37873527 38 138 C38.31839844 136.98550781 38.63679687 135.97101563 38.96484375 134.92578125 C48.17646323 102.06642221 41.69055362 67.3428263 25.35546875 37.98046875 C19.79964647 28.36735867 12.58332253 20.06435419 5 12 C4.4740625 11.40960938 3.948125 10.81921875 3.40625 10.2109375 C-17.63598435 -12.44167193 -50.66615784 -24.61528823 -81 -26 C-81.76957031 -26.04125 -82.53914062 -26.0825 -83.33203125 -26.125 C-104.55466892 -26.70347053 -125.06117504 -21.24198118 -144 -12 Z " fill="#9A0000" transform="translate(266,77)"/>
<path d="M0 0 C1.734375 0.1171875 1.734375 0.1171875 4 1 C5.61442562 3.03276218 6.92615552 4.91859253 8.25 7.125 C8.61351562 7.681875 8.97703125 8.23875 9.3515625 8.8125 C11.91241379 12.99073105 12.55740739 16.14936977 12 21 C9.875 23 9.875 23 7 24 C3.6875 23.6875 3.6875 23.6875 1 23 C-0.58255197 27.32564205 -1.45144652 31.428721 -2 36 C-4.51045642 35.04775791 -6.03135861 33.96864139 -7.9375 32.0625 C-9.65320824 27.11722331 -7.64475193 22.81617104 -6 18 C-9.12474627 19.63473516 -9.12474627 19.63473516 -9.6875 22.125 C-9.790625 22.74375 -9.89375 23.3625 -10 24 C-13.82053924 22.72648692 -14.23021375 21.37362475 -16.1875 17.9375 C-16.71730469 17.01839844 -17.24710937 16.09929687 -17.79296875 15.15234375 C-18.19128906 14.44207031 -18.58960938 13.73179688 -19 13 C-18.01 12.67 -17.02 12.34 -16 12 C-15.34 12.33 -14.68 12.66 -14 13 C-11.52364381 11.68462135 -9.22441068 10.32682312 -6.875 8.8125 C-6.21628906 8.41224609 -5.55757813 8.01199219 -4.87890625 7.59960938 C-2.74521533 6.28384766 -2.74521533 6.28384766 0 4 C0 2.68 0 1.36 0 0 Z M4 10 C0.81711646 11.87178116 0.81711646 11.87178116 -2 14 C-1.01 15.485 -1.01 15.485 0 17 C1.98 16.67 3.96 16.34 6 16 C6.33 14.35 6.66 12.7 7 11 C6.01 10.67 5.02 10.34 4 10 Z " fill="#9A0000" transform="translate(310,80)"/>
<path d="M0 0 C0.66 0 1.32 0 2 0 C2.25394531 0.54269531 2.50789063 1.08539063 2.76953125 1.64453125 C3.11371094 2.35996094 3.45789063 3.07539063 3.8125 3.8125 C4.14894531 4.52019531 4.48539063 5.22789062 4.83203125 5.95703125 C6.00645471 8.01129035 7.25628016 9.41616278 9 11 C10.79639296 9.90353942 12.58697154 8.79754852 14.375 7.6875 C15.37273438 7.07261719 16.37046875 6.45773438 17.3984375 5.82421875 C20.19826812 4.09562225 20.19826812 4.09562225 22 1 C22.99 1 23.98 1 25 1 C25.23019171 4.86586667 25.18237496 8.29140542 24 12 C20.93696995 14.4629475 17.71573 15.7794063 14 17 C15.65 17.33 17.3 17.66 19 18 C19.33 17.34 19.66 16.68 20 16 C20.99 16 21.98 16 23 16 C22.34 20.62 21.68 25.24 21 30 C20.34 30 19.68 30 19 30 C18.67 29.01 18.34 28.02 18 27 C11.93184478 25.77100654 6.20104812 24.72439786 0 25 C-0.33 25.66 -0.66 26.32 -1 27 C-1.99 27 -2.98 27 -4 27 C-3.34 22.38 -2.68 17.76 -2 13 C-1.01 13.33 -0.02 13.66 1 14 C1 14.99 1 15.98 1 17 C2.98 16.67 4.96 16.34 7 16 C5.35 14.02 3.7 12.04 2 10 C1.01 10.33 0.02 10.66 -1 11 C-1.14285714 3.57142857 -1.14285714 3.57142857 0 0 Z " fill="#9A0000" transform="translate(18,143)"/>
<path d="M0 0 C0.99 0.33 1.98 0.66 3 1 C3.00902344 1.70511719 3.01804687 2.41023438 3.02734375 3.13671875 C4.52316597 7.54008296 7.82081466 9.25778503 11.5625 11.8125 C12.27341797 12.31458984 12.98433594 12.81667969 13.71679688 13.33398438 C15.46895682 14.56872796 17.23334375 15.78608818 19 17 C18.34 18.32 17.68 19.64 17 21 C15.72382812 21.06058594 14.44765625 21.12117188 13.1328125 21.18359375 C11.46352984 21.26799568 9.79425963 21.35264386 8.125 21.4375 C7.28324219 21.47681641 6.44148438 21.51613281 5.57421875 21.55664062 C4.76855469 21.59853516 3.96289062 21.64042969 3.1328125 21.68359375 C2.01737061 21.73858032 2.01737061 21.73858032 0.87939453 21.79467773 C-1.08864312 21.89955865 -1.08864312 21.89955865 -3 23 C1.59059658 27.03657955 1.59059658 27.03657955 7.4375 27.8125 C8.283125 27.544375 9.12875 27.27625 10 27 C10.33 27.66 10.66 28.32 11 29 C10.04956626 30.33897583 9.08940853 31.67105427 8.125 33 C7.59132813 33.7425 7.05765625 34.485 6.5078125 35.25 C6.01023437 35.8275 5.51265625 36.405 5 37 C4.34 37 3.68 37 3 37 C2.94070312 36.26394531 2.88140625 35.52789062 2.8203125 34.76953125 C1.22086325 29.36948593 -4.2836533 26.63014721 -9 24 C-11.72276723 23.39028631 -13.22275446 23.50626746 -16 24 C-15.35330586 22.65686601 -14.68096422 21.32608822 -14 20 C-13.649375 19.1440625 -13.29875 18.288125 -12.9375 17.40625 C-11 15 -11 15 -7.20703125 14.29296875 C-5.74297921 14.23334672 -4.2777203 14.19901702 -2.8125 14.1875 C-1.68811523 14.14979492 -1.68811523 14.14979492 -0.54101562 14.11132812 C1.30542621 14.05252424 3.15277002 14.02338266 5 14 C5 13.34 5 12.68 5 12 C2.18230651 9.82635074 0.7809319 8.91322979 -2.8125 9.3125 C-3.534375 9.539375 -4.25625 9.76625 -5 10 C-4.38545304 6.00544473 -2.29353263 3.25533664 0 0 Z " fill="#9A0000" transform="translate(53,72)"/>
<path d="M0 0 C3.64461135 -0.99614106 6.37377961 -1.14007986 10 0 C14.44653011 3.93352271 17.71388829 9.10206923 21 14 C21.0309375 12.71867187 21.061875 11.43734375 21.09375 10.1171875 C21.11115234 9.39644043 21.12855469 8.67569336 21.14648438 7.93310547 C21.17160514 5.8532537 21.17160514 5.8532537 19.5 4.125 C19.005 3.75375 18.51 3.3825 18 3 C18 2.34 18 1.68 18 1 C21.63 1 25.26 1 29 1 C29 1.66 29 2.32 29 3 C28.01 3.33 27.02 3.66 26 4 C25.97494385 4.59538574 25.9498877 5.19077148 25.92407227 5.80419922 C25.80822506 8.49469136 25.68544804 11.1848234 25.5625 13.875 C25.52318359 14.81214844 25.48386719 15.74929687 25.44335938 16.71484375 C25.40146484 17.61074219 25.35957031 18.50664063 25.31640625 19.4296875 C25.27974854 20.25710449 25.24309082 21.08452148 25.20532227 21.93701172 C25 24 25 24 24 26 C20.71249877 25.74005804 19.82937922 24.82193781 17.4921875 22.3828125 C16.61011323 21.30472172 15.73797302 20.21844059 14.875 19.125 C14.43285156 18.58230469 13.99070313 18.03960937 13.53515625 17.48046875 C11.56782195 15.04953302 9.73568079 12.60352118 8 10 C7.91913853 11.79093191 7.86087298 13.58289628 7.8125 15.375 C7.77769531 16.37273438 7.74289063 17.37046875 7.70703125 18.3984375 C7.80371094 19.25695312 7.90039062 20.11546875 8 21 C8.99 21.66 9.98 22.32 11 23 C11 23.66 11 24.32 11 25 C7.37 25 3.74 25 0 25 C0.495 23.515 0.495 23.515 1 22 C1.66 21.67 2.32 21.34 3 21 C3.08074203 18.37438891 3.1403623 15.75124324 3.1875 13.125 C3.21263672 12.37863281 3.23777344 11.63226563 3.26367188 10.86328125 C3.3298764 8.43778172 3.3298764 8.43778172 3 5 C2.01 4.34 1.02 3.68 0 3 C0 2.01 0 1.02 0 0 Z " fill="#9A0000" transform="translate(168,14)"/>
<path d="M0 0 C2.11025779 1.61786431 3.46699478 3.18469165 4.875 5.4375 C4.875 6.0975 4.875 6.7575 4.875 7.4375 C1.245 7.1075 -2.385 6.7775 -6.125 6.4375 C-8.60456318 11.07538086 -8.60456318 11.07538086 -7.125 14.4375 C-4.6999143 18.07512855 -2.78152838 20.02419127 0.875 22.4375 C3.67985127 22.3968157 3.67985127 22.3968157 5.875 21.4375 C5.875 20.1175 5.875 18.7975 5.875 17.4375 C3.895 16.7775 1.915 16.1175 -0.125 15.4375 C2.54275205 11.88049727 5.1575095 8.915827 8.875 6.4375 C9.865 6.7675 10.855 7.0975 11.875 7.4375 C11.83375 8.22125 11.7925 9.005 11.75 9.8125 C11.58771266 12.59866119 11.58771266 12.59866119 13.875 14.4375 C13.875 18.99128528 11.41431916 21.71624272 8.48046875 24.921875 C5.32623966 27.89959005 2.66866771 28.35091807 -1.5625 28.8125 C-6.76548918 28.26481693 -9.63603321 26.17462792 -13 22.25 C-14.63010175 18.17474563 -15.13621268 14.74770438 -14.125 10.4375 C-11.38788624 6.01364948 -5.78494625 -1.5313093 0 0 Z " fill="#9A0000" transform="translate(85.125,45.5625)"/>
<path d="M0 0 C2.82868857 1.29603412 4.9701021 2.69189598 7.234375 4.8203125 C7.80800781 5.35527344 8.38164062 5.89023437 8.97265625 6.44140625 C9.55917969 6.99699219 10.14570313 7.55257812 10.75 8.125 C11.35199219 8.68832031 11.95398438 9.25164063 12.57421875 9.83203125 C14.05334151 11.21724146 15.52719641 12.6080729 17 14 C15.63016497 17.16115776 15.0109362 17.9927092 12 20 C11.87625 19.443125 11.7525 18.88625 11.625 18.3125 C10.94023145 15.77885636 10.00866237 13.42078968 9 11 C7.05925139 11.27617533 7.05925139 11.27617533 5 12 C4.01 13.485 4.01 13.485 3 15 C5.49064888 15.68707555 7.37886292 16 10 16 C8.47291037 19.43595166 6.40072955 22.11912454 4 25 C3.01 24.67 2.02 24.34 1 24 C1 22.35 1 20.7 1 19 C0.34 18.67 -0.32 18.34 -1 18 C-3.58777208 21.05580974 -3.58777208 21.05580974 -4 25 C-0.91111478 27.05925681 -0.29064073 27.2390374 3.1875 27.125 C4.445625 27.08375 5.70375 27.0425 7 27 C5.59284684 30.40062014 3.97131772 31.89229698 1 34 C0.09636719 33.15695313 -0.80726563 32.31390625 -1.73828125 31.4453125 C-2.92958526 30.33843161 -4.12099715 29.23166684 -5.3125 28.125 C-5.90740234 27.56941406 -6.50230469 27.01382813 -7.11523438 26.44140625 C-7.69208984 25.90644531 -8.26894531 25.37148437 -8.86328125 24.8203125 C-9.65665894 24.08192139 -9.65665894 24.08192139 -10.46606445 23.32861328 C-12.17281235 21.79418204 -12.17281235 21.79418204 -15 20 C-15 19.01 -15 18.02 -15 17 C-13.9790625 16.9690625 -13.9790625 16.9690625 -12.9375 16.9375 C-8.49627243 15.52008695 -6.05261911 12.41441101 -3 9 C-2.360625 8.29875 -1.72125 7.5975 -1.0625 6.875 C0.29801134 4.47409764 0.22615215 2.71382576 0 0 Z " fill="#9A0000" transform="translate(282,50)"/>
<path d="M0 0 C3.7840144 2.94312231 4.74746762 5.63835106 5.75 10.25 C6.11351562 11.86648437 6.11351562 11.86648437 6.484375 13.515625 C6.65453125 14.33546875 6.8246875 15.1553125 7 16 C2.545 17.485 2.545 17.485 -2 19 C-1 15 -1 15 1 12 C1.16713569 9.37468476 1.16713569 9.37468476 1 7 C-0.32 7 -1.64 7 -3 7 C-3.02578125 7.81984375 -3.0515625 8.6396875 -3.078125 9.484375 C-3.13484375 10.56203125 -3.1915625 11.6396875 -3.25 12.75 C-3.31960938 14.35101563 -3.31960938 14.35101563 -3.390625 15.984375 C-4.11757049 19.58182322 -5.10625811 20.79971337 -8 23 C-11.4375 23.625 -11.4375 23.625 -15 23 C-19.41113942 19.17701251 -20.66050208 15.72569298 -21.640625 10.05078125 C-21.98123966 7.81006241 -21.98123966 7.81006241 -23 5 C-20.03 4.01 -17.06 3.02 -14 2 C-14 6 -14 6 -15.5625 8.4375 C-17.28482538 10.92463383 -17.28482538 10.92463383 -16.6875 13.8125 C-16.460625 14.534375 -16.23375 15.25625 -16 16 C-14.68 16.33 -13.36 16.66 -12 17 C-11.97421875 16.10796875 -11.9484375 15.2159375 -11.921875 14.296875 C-11.86515625 13.12640625 -11.8084375 11.9559375 -11.75 10.75 C-11.70359375 9.58984375 -11.6571875 8.4296875 -11.609375 7.234375 C-10.34091934 0.50180267 -6.43557332 -0.91936762 0 0 Z " fill="#9A0000" transform="translate(333,120)"/>
<path d="M0 0 C2.64 0 5.28 0 8 0 C8.99 7.59 9.98 15.18 11 23 C10.01 23 9.02 23 8 23 C7.67 22.34 7.34 21.68 7 21 C4.74971671 21.14139481 2.49977794 21.28828003 0.25 21.4375 C-1.00296875 21.51871094 -2.2559375 21.59992188 -3.546875 21.68359375 C-7.36769339 21.96582832 -7.36769339 21.96582832 -11 23 C-11.33 23.99 -11.66 24.98 -12 26 C-12.66 26 -13.32 26 -14 26 C-14.99 19.07 -15.98 12.14 -17 5 C-13 3 -13 3 -9 3 C-9 3.99 -9 4.98 -9 6 C-9.99 6.66 -10.98 7.32 -12 8 C-12.73606499 11.56769552 -12.73606499 11.56769552 -13 15 C-10.36 14.67 -7.72 14.34 -5 14 C-6.29299694 11.11562221 -7.65941363 9.12780579 -10 7 C-7.59454362 5.79727181 -6.05003047 5.89928528 -3.375 5.9375 C-2.14910156 5.95103516 -2.14910156 5.95103516 -0.8984375 5.96484375 C0.04128906 5.98224609 0.04128906 5.98224609 1 6 C0.67 6.99 0.34 7.98 0 9 C-0.66 9 -1.32 9 -2 9 C-2 10.65 -2 12.3 -2 14 C0.64 13.34 3.28 12.68 6 12 C5.12527407 7.04485498 5.12527407 7.04485498 1.875 3.5625 C1.25625 3.376875 0.6375 3.19125 0 3 C0 2.01 0 1.02 0 0 Z " fill="#9A0000" transform="translate(31,185)"/>
<path d="M0 0 C2.80740885 2.24592708 4.61164156 3.89467213 5.8125 7.3125 C5.874375 7.869375 5.93625 8.42625 6 9 C8.31 8.34 10.62 7.68 13 7 C13 5.68 13 4.36 13 3 C13.66 3 14.32 3 15 3 C15.67305018 4.60149886 16.33822227 6.20631029 17 7.8125 C17.37125 8.70582031 17.7425 9.59914062 18.125 10.51953125 C19 13 19 13 19 16 C17.72382812 15.67708984 17.72382812 15.67708984 16.421875 15.34765625 C12.29486787 14.92835986 10.04418278 15.8245352 6.25 17.4375 C0.13351499 20 0.13351499 20 -2 20 C-2 21.32 -2 22.64 -2 24 C-2.66 24 -3.32 24 -4 24 C-5.04196389 21.65331612 -6.05816553 19.30024695 -7.0625 16.9375 C-7.35705078 16.28072266 -7.65160156 15.62394531 -7.95507812 14.94726562 C-9.90199072 10.29758024 -10.3980792 7.02180019 -9 2 C-5.48175489 -0.34549674 -4.14224306 -0.57991403 0 0 Z M-4.8125 8.5 C-5.204375 8.995 -5.59625 9.49 -6 10 C-5.67 10.99 -5.34 11.98 -5 13 C-0.87026372 12.43260132 -0.87026372 12.43260132 3 11 C2.67 9.68 2.34 8.36 2 7 C-1.71736641 6.65099442 -1.71736641 6.65099442 -4.8125 8.5 Z " fill="#9A0000" transform="translate(33,225)"/>
<path d="M0 0 C0 0.99 0 1.98 0 3 C-0.99 3.495 -0.99 3.495 -2 4 C-1.47072663 9.07857923 -1.47072663 9.07857923 -0.4375 14.0625 C0.27271808 17.20775149 0.33825497 19.78657782 0 23 C-2.54137159 26.15954305 -4.14622659 27.71540886 -8 29 C-14.95551257 29.67311412 -14.95551257 29.67311412 -18.8125 27.1875 C-22.28954902 22.12094285 -24 16.15855413 -24 10 C-25.32 10 -26.64 10 -28 10 C-28 9.01 -28 8.02 -28 7 C-23.71 6.01 -19.42 5.02 -15 4 C-15 4.99 -15 5.98 -15 7 C-15.66 7 -16.32 7 -17 7 C-15.68 12.61 -14.36 18.22 -13 24 C-10.69 24 -8.38 24 -6 24 C-3.79390206 22.24473252 -3.79390206 22.24473252 -3.91796875 20.08203125 C-4.53586302 14.87918239 -5.4921215 10.62992953 -8 6 C-8.99 5.67 -9.98 5.34 -11 5 C-11 4.34 -11 3.68 -11 3 C-9.54293274 2.49632243 -8.08429904 1.99717444 -6.625 1.5 C-5.81289062 1.2215625 -5.00078125 0.943125 -4.1640625 0.65625 C-2 0 -2 0 0 0 Z " fill="#9A0000" transform="translate(152,16)"/>
<path d="M0 0 C3 2.5 3 2.5 5 5 C4.67 5.94875 4.34 6.8975 4 7.875 C2.89840809 10.77062452 2.89840809 10.77062452 3 13 C3.33 13.33 3.66 13.66 4 14 C4.49318163 18.27424083 4.4524551 20.33545657 2 23.9375 C-1.85729936 26.58939331 -4.45879071 26.82567442 -9 26 C-11.9375 24.875 -11.9375 24.875 -14 23 C-15 20.0625 -15 20.0625 -15 17 C-14.50371094 16.38125 -14.00742188 15.7625 -13.49609375 15.125 C-11.22075545 11.89318789 -11.95937684 9.14060358 -12.28515625 5.33984375 C-12 3 -12 3 -10.2421875 1.22265625 C-6.89339764 -0.60342603 -3.66508904 -0.81285143 0 0 Z M-6 3 C-6.33 4.32 -6.66 5.64 -7 7 C-4.525 8.485 -4.525 8.485 -2 10 C-1.34 9.34 -0.68 8.68 0 8 C-0.3185177 5.89179203 -0.3185177 5.89179203 -1 4 C-2.65 3.67 -4.3 3.34 -6 3 Z M-7 14 C-8.66621425 15.1645201 -8.66621425 15.1645201 -10 17 C-9.76956136 19.65466049 -9.76956136 19.65466049 -9 22 C-5.41672247 23.00217064 -5.41672247 23.00217064 -2 22 C-1.58219121 19.62694422 -1.58219121 19.62694422 -2 17 C-4.40858714 15.1375562 -4.40858714 15.1375562 -7 14 Z " fill="#9A0000" transform="translate(164,319)"/>
<path d="M0 0 C1 1 1 1 1.0625 4.5625 C1.041875 5.696875 1.02125 6.83125 1 8 C2.2065625 8.433125 2.2065625 8.433125 3.4375 8.875 C6 10 6 10 7 12 C7.41309049 15.05686964 7.49909413 17.95118586 7 21 C4.01920064 24.13768353 1.42702985 25.84488806 -2.875 26.3125 C-6 26 -6 26 -8.375 24.375 C-10.43596718 21.36281721 -10.38932198 19.5817622 -10 16 C-9.67 15.34 -9.34 14.68 -9 14 C-9.639375 13.87625 -10.27875 13.7525 -10.9375 13.625 C-11.618125 13.41875 -12.29875 13.2125 -13 13 C-14.56430248 9.87139505 -14.35627284 7.44397075 -14 4 C-9.51352631 -0.60772974 -6.16443102 -1.3400937 0 0 Z M-8 3 C-8.66 4.32 -9.32 5.64 -10 7 C-8.16116119 9.28728734 -8.16116119 9.28728734 -5.375 9.125 C-4.59125 9.08375 -3.8075 9.0425 -3 9 C-2.67 8.01 -2.34 7.02 -2 6 C-2.66 5.01 -3.32 4.02 -4 3 C-5.32 3 -6.64 3 -8 3 Z M-5 15 C-5.69159401 16.84725052 -5.69159401 16.84725052 -6 19 C-5.01 20.485 -5.01 20.485 -4 22 C-1.5 22.41666667 -1.5 22.41666667 1 22 C1.66 21.34 2.32 20.68 3 20 C2.59471099 17.21762345 2.59471099 17.21762345 1 15 C-0.99958364 14.95919217 -3.00045254 14.95745644 -5 15 Z " fill="#9A0000" transform="translate(245,308)"/>
<path d="M0 0 C0.99 0 1.98 0 3 0 C3.103125 0.639375 3.20625 1.27875 3.3125 1.9375 C3.539375 2.618125 3.76625 3.29875 4 4 C7.44824293 5.14941431 9.82059419 4.9963273 13.4375 4.75 C14.57058594 4.68296875 15.70367187 4.6159375 16.87109375 4.546875 C20.16165558 3.97174559 21.50208776 3.1166819 24 1 C24.66 1 25.32 1 26 1 C25.46148032 6.27749285 24.22656164 10.25645564 22 15 C21.01 14.67 20.02 14.34 19 14 C19.33 13.34 19.66 12.68 20 12 C15.545 12.495 15.545 12.495 11 13 C12.98 15.97 12.98 15.97 15 19 C16.32 18.67 17.64 18.34 19 18 C20.39195915 22.17587745 18.82323219 24.13474776 17 28 C16.01 27.67 15.02 27.34 14 27 C13.7525 26.154375 13.505 25.30875 13.25 24.4375 C11.55678874 19.78116904 8.80023246 16.19097676 5 13 C2.51462466 12.03999453 2.51462466 12.03999453 0 12 C-0.99 12.66 -1.98 13.32 -3 14 C-4.25955231 10.22134307 -3.48087189 8.96588214 -2.0625 5.3125 C-1.68222656 4.31863281 -1.30195313 3.32476562 -0.91015625 2.30078125 C-0.60980469 1.54152344 -0.30945313 0.78226563 0 0 Z " fill="#9A0000" transform="translate(313,224)"/>
<path d="M0 0 C3.03236795 0.67448932 4.35438833 1.93397127 6.08984375 4.46484375 C7.53917358 8.81283323 7.6065344 12.9207972 7.08984375 17.46484375 C5.09595626 21.38140846 2.95333378 24.30583462 -0.91015625 26.46484375 C-4.16015625 27.15234375 -4.16015625 27.15234375 -6.91015625 27.46484375 C-7.24015625 26.47484375 -7.57015625 25.48484375 -7.91015625 24.46484375 C-5.60015625 23.80484375 -3.29015625 23.14484375 -0.91015625 22.46484375 C-0.58015625 20.48484375 -0.25015625 18.50484375 0.08984375 16.46484375 C-0.57015625 16.79484375 -1.23015625 17.12484375 -1.91015625 17.46484375 C-4.78515625 17.83984375 -4.78515625 17.83984375 -7.91015625 17.46484375 C-10.74014044 14.93275263 -11.75847967 13.25693258 -12.47265625 9.52734375 C-11.87101596 6.25174659 -10.87956886 4.07449172 -8.60546875 1.60546875 C-5.81754775 -0.27027534 -3.28085107 -0.22381846 0 0 Z M-4.91015625 3.46484375 C-6.24203418 4.57651239 -6.24203418 4.57651239 -6.09765625 7.40234375 C-6.24294358 10.57377234 -6.24294358 10.57377234 -3.91015625 12.46484375 C-2.59015625 12.46484375 -1.27015625 12.46484375 0.08984375 12.46484375 C0.88341176 10.71812787 0.88341176 10.71812787 1.08984375 8.46484375 C-0.0476482 5.67976059 -0.0476482 5.67976059 -1.91015625 3.46484375 C-2.90015625 3.46484375 -3.89015625 3.46484375 -4.91015625 3.46484375 Z " fill="#9A0000" transform="translate(202.91015625,318.53515625)"/>
<path d="M0 0 C4.8274799 1.41292095 8.7162359 3.42974154 13 6 C12.67 6.66 12.34 7.32 12 8 C10.68 8 9.36 8 8 8 C8 12.29 8 16.58 8 21 C12.455 17.535 12.455 17.535 17 14 C16.67 12.35 16.34 10.7 16 9 C19.95820859 9.56545837 22.6659053 10.80902348 26 13 C25 15 25 15 21.8515625 16.265625 C16.92948219 18.26058762 13.52166426 21.70965637 9.71875 25.32421875 C8.0859375 26.796875 8.0859375 26.796875 5 29 C2.1015625 28.828125 2.1015625 28.828125 0 28 C-0.12153134 21.07271353 0.30924846 14.25465755 0.87890625 7.35546875 C0.98005793 4.55258846 0.89096104 2.62008542 0 0 Z " fill="#9A0000" transform="translate(244,27)"/>
<path d="M0 0 C2.31 0 4.62 0 7 0 C8.07041123 3.21123369 7.93878878 4.60399408 7.44140625 7.88671875 C7.30283203 8.82451172 7.16425781 9.76230469 7.02148438 10.72851562 C6.87001953 11.70498047 6.71855469 12.68144531 6.5625 13.6875 C6.41490234 14.67556641 6.26730469 15.66363281 6.11523438 16.68164062 C5.74975343 19.12211013 5.37777429 21.56140835 5 24 C2.36 24 -0.28 24 -3 24 C-3 23.01 -3 22.02 -3 21 C-1.35 20.34 0.3 19.68 2 19 C2 18.01 2 17.02 2 16 C-3.94 15.34 -9.88 14.68 -16 14 C-16.33 14.99 -16.66 15.98 -17 17 C-17.66 17 -18.32 17 -19 17 C-18.67 12.38 -18.34 7.76 -18 3 C-17.01 3 -16.02 3 -15 3 C-14.67 3.99 -14.34 4.98 -14 6 C-8.39 6.66 -2.78 7.32 3 8 C2.22404875 4.89619499 1.4731994 2.74997221 0 0 Z " fill="#9A0000" transform="translate(338,187)"/>
<path d="M0 0 C0.66 0 1.32 0 2 0 C2 1.32 2 2.64 2 4 C4.4566947 5.00419637 6.91518353 6.00350501 9.375 7 C10.07367188 7.28617187 10.77234375 7.57234375 11.4921875 7.8671875 C15.12885961 9.44524399 15.12885961 9.44524399 19 10 C19.33 9.34 19.66 8.68 20 8 C20.99 8.33 21.98 8.66 23 9 C22.54554036 10.41791408 22.08625056 11.83428046 21.625 13.25 C21.24214844 14.43335937 21.24214844 14.43335937 20.8515625 15.640625 C20.04826333 17.86627958 19.10288338 19.90931672 18 22 C17.34 22 16.68 22 16 22 C15.90702637 21.37657715 15.81405273 20.7531543 15.71826172 20.11083984 C15.12105588 17.55027967 15.12105588 17.55027967 11.5078125 16.2265625 C10.05307115 15.67604795 8.59170113 15.14280927 7.125 14.625 C6.39152344 14.34011719 5.65804687 14.05523437 4.90234375 13.76171875 C2.51854101 12.84982105 2.51854101 12.84982105 -1 12 C-1.99 12.66 -2.98 13.32 -4 14 C-5.2277183 10.31684509 -4.6026666 9.37044582 -3.125 5.875 C-2.75632812 4.98554687 -2.38765625 4.09609375 -2.0078125 3.1796875 C-1 1 -1 1 0 0 Z " fill="#9A0000" transform="translate(29,112)"/>
<path d="M0 0 C1.77131561 0.30975468 3.54203778 0.62290425 5.3125 0.9375 C6.79169922 1.19853516 6.79169922 1.19853516 8.30078125 1.46484375 C11 2 11 2 14 3 C14 3.99 14 4.98 14 6 C13.01 6 12.02 6 11 6 C10.32678716 8.24805002 9.66165877 10.49852224 9 12.75 C8.62875 14.00296875 8.2575 15.2559375 7.875 16.546875 C6.83624628 20.05253232 6.83624628 20.05253232 7 24 C7.66 24.33 8.32 24.66 9 25 C9 25.66 9 26.32 9 27 C4.02906176 26.58846263 -0.44508386 26.20399168 -5 24 C-5 23.34 -5 22.68 -5 22 C-3.68 22 -2.36 22 -1 22 C-0.49729748 19.30102434 -0.00238809 16.60104629 0.48046875 13.8984375 C0.78244293 12.21373946 1.09305475 10.53045766 1.42578125 8.8515625 C2.10449456 5.10637337 1.84040846 3.27734276 0 0 Z " fill="#9A0000" transform="translate(214,18)"/>
<path d="M0 0 C0.66 0 1.32 0 2 0 C3.20568053 4.67201205 3.09382426 9.21496292 3 14 C2.34 14 1.68 14 1 14 C0.67 13.34 0.34 12.68 0 12 C-6.11485027 11.90293888 -11.93303301 12.22959149 -18 13 C-18.33 13.99 -18.66 14.98 -19 16 C-19.99 15.67 -20.98 15.34 -22 15 C-22.33 10.71 -22.66 6.42 -23 2 C-22.01 2 -21.02 2 -20 2 C-20 2.99 -20 3.98 -20 5 C-17.03935741 4.74580341 -14.08269655 4.47249807 -11.125 4.1875 C-9.86236328 4.08211914 -9.86236328 4.08211914 -8.57421875 3.97460938 C-7.76855469 3.89404297 -6.96289062 3.81347656 -6.1328125 3.73046875 C-5.38918457 3.66239014 -4.64555664 3.59431152 -3.87939453 3.52416992 C-1.60154748 3.10913312 -1.60154748 3.10913312 0 0 Z " fill="#9A0000" transform="translate(342,156)"/>
<path d="M0 0 C1.216875 -0.020625 2.43375 -0.04125 3.6875 -0.0625 C4.71423828 -0.07990234 4.71423828 -0.07990234 5.76171875 -0.09765625 C8.25492215 0.01112226 10.56712913 0.45888861 13 1 C12.6443396 1.78648926 12.6443396 1.78648926 12.28149414 2.58886719 C11.20506002 4.97437813 10.13373612 7.36215061 9.0625 9.75 C8.50272461 10.9875 8.50272461 10.9875 7.93164062 12.25 C7.57392578 13.04921875 7.21621094 13.8484375 6.84765625 14.671875 C6.51773682 15.4050293 6.18781738 16.13818359 5.84790039 16.89355469 C5.03424573 18.91492307 4.47230688 20.87566863 4 23 C4.99 23.33 5.98 23.66 7 24 C6.67 24.66 6.34 25.32 6 26 C2.2397015 25.41892368 -0.53035032 24.34800504 -3.8125 22.4375 C-4.60269531 21.98246094 -5.39289063 21.52742188 -6.20703125 21.05859375 C-6.79871094 20.70925781 -7.39039062 20.35992187 -8 20 C-7.67 19.34 -7.34 18.68 -7 18 C-5.35 18.33 -3.7 18.66 -2 19 C-1.7525 18.195625 -1.505 17.39125 -1.25 16.5625 C0.26078647 12.25675857 2.10188856 8.14635993 4 4 C2.35 3.67 0.7 3.34 -1 3 C-0.67 2.01 -0.34 1.02 0 0 Z " fill="#9A0000" transform="translate(113,308)"/>
</svg>
